<svg width="250" height="250" viewBox="0 0 250 250" fill="none" xmlns="http://www.w3.org/2000/svg">
<g id="Frame 3">
<rect width="250" height="250" fill="white"/>
<path id="Orange" d="M232.169 112.286C232.558 115.236 232.813 118.226 232.928 121.249L229.491 121.258L229.5 124.758C229.5 124.828 229.5 124.899 229.5 124.97C229.5 124.98 229.5 124.99 229.5 125C229.5 125.081 229.5 125.162 229.5 125.242L229.491 128.742L232.928 128.751C232.813 131.774 232.558 134.764 232.169 137.714L228.78 137.143L228.198 140.594C228.171 140.753 228.144 140.911 228.117 141.07L227.516 144.518L230.902 145.107C230.278 148.056 229.519 150.959 228.632 153.81L225.389 152.671L224.229 155.973C224.209 156.031 224.189 156.088 224.169 156.146C224.135 156.24 224.102 156.334 224.069 156.428L222.892 159.724L226.129 160.879C225.018 163.671 223.781 166.405 222.425 169.074L219.416 167.409L217.722 170.472C217.644 170.613 217.566 170.753 217.487 170.894L215.778 173.948L218.779 175.627C217.224 178.191 215.554 180.685 213.777 183.103L211.076 180.972L208.908 183.719C208.869 183.769 208.83 183.818 208.79 183.868C208.73 183.945 208.669 184.021 208.608 184.098L206.427 186.835L209.117 188.979C207.174 191.256 205.129 193.452 202.988 195.561L200.655 193.031L198.082 195.404C197.964 195.513 197.845 195.622 197.726 195.731L195.142 198.092L197.464 200.633C195.192 202.576 192.831 204.429 190.389 206.186L188.47 203.328L185.564 205.279C185.43 205.369 185.296 205.459 185.162 205.548L182.247 207.486L184.154 210.353C181.614 211.926 179.001 213.401 176.319 214.771L174.85 211.656L171.684 213.149C171.538 213.218 171.391 213.286 171.245 213.354L168.072 214.833L169.527 217.955C166.784 219.129 163.98 220.197 161.121 221.156L160.129 217.856L156.777 218.864C156.725 218.879 156.673 218.895 156.621 218.91C156.518 218.941 156.415 218.972 156.312 219.002L152.955 219.995L153.932 223.299C151.05 224.054 148.12 224.699 145.147 225.228L144.647 221.819L141.184 222.326C141.024 222.35 140.864 222.373 140.704 222.395L137.239 222.888L137.724 226.3C134.768 226.627 131.775 226.842 128.751 226.94L128.744 223.492L125.244 223.5L125 223.5L124.756 223.5L121.256 223.492L121.249 226.94C118.225 226.842 115.232 226.627 112.276 226.3L112.761 222.888L109.296 222.395C109.136 222.373 108.976 222.35 108.816 222.326L105.353 221.819L104.853 225.228C101.88 224.699 98.9497 224.054 96.0678 223.299L97.0447 219.995L93.6883 219.002C93.6225 218.983 93.5567 218.963 93.4909 218.944C93.4015 218.917 93.3121 218.891 93.2228 218.864L89.8709 217.856L88.8793 221.156C86.0198 220.197 83.2156 219.129 80.4727 217.955L81.9275 214.833L78.755 213.354C78.6085 213.286 78.4622 213.218 78.3161 213.149L75.1504 211.656L73.6814 214.771C70.9993 213.401 68.3856 211.926 65.8463 210.353L67.753 207.486L64.8384 205.548C64.704 205.459 64.5699 205.369 64.436 205.279L61.5304 203.328L59.6107 206.186C57.1686 204.429 54.8082 202.576 52.5358 200.633L54.8579 198.092L52.274 195.731C52.1551 195.622 52.0365 195.513 51.9181 195.404L49.3454 193.031L47.0116 195.561C44.8714 193.452 42.8262 191.256 40.8825 188.979L43.5733 186.835L41.392 184.098C41.2917 183.972 41.1917 183.846 41.092 183.719L38.9241 180.972L36.2231 183.103C34.4458 180.685 32.7763 178.191 31.2213 175.627L34.222 173.948L32.5125 170.894C32.434 170.753 32.3558 170.613 32.278 170.472L30.5838 167.409L27.575 169.074C26.2188 166.405 24.9819 163.671 23.8709 160.879L27.108 159.724L25.9314 156.428C25.8774 156.276 25.8238 156.125 25.7705 155.973L24.6109 152.671L21.368 153.81C20.4809 150.959 19.7221 148.056 19.098 145.107L22.4836 144.518L21.8834 141.07C21.8558 140.911 21.8286 140.753 21.8018 140.594L21.2195 137.143L17.8309 137.714C17.4424 134.764 17.1874 131.774 17.0717 128.751L20.5092 128.742L20.5003 125.242C20.5001 125.162 20.5 125.081 20.5 125C20.5 124.919 20.5001 124.838 20.5003 124.758L20.5092 121.258L17.0717 121.249C17.1874 118.226 17.4424 115.236 17.8309 112.286L21.2195 112.857L21.8018 109.406C21.8286 109.247 21.8558 109.089 21.8834 108.93L22.4836 105.482L19.098 104.893C19.7221 101.944 20.4809 99.0413 21.368 96.1905L24.6109 97.3292L25.7705 94.0269C25.8238 93.8753 25.8774 93.7238 25.9314 93.5725L27.108 90.2762L23.8709 89.1207C24.9819 86.3289 26.2188 83.5953 27.575 80.9261L30.5838 82.5905L32.278 79.5279C32.3558 79.3872 32.434 79.2467 32.5125 79.1064L34.222 76.0523L31.2213 74.3727C32.7763 71.809 34.4458 69.3152 36.2231 66.8974L38.9241 69.0285L41.092 66.2808C41.1917 66.1544 41.2917 66.0283 41.392 65.9024L43.5733 63.1652L40.8825 61.0209C42.8262 58.7443 44.8714 56.5483 47.0116 54.4389L49.3454 56.9691L51.9181 54.596C52.0365 54.4868 52.1551 54.3779 52.274 54.2692L54.8579 51.9083L52.5358 49.367C54.8082 47.4238 57.1686 45.5707 59.6107 43.8136L61.5304 46.6722L64.436 44.721C64.5699 44.6311 64.704 44.5414 64.8384 44.4521L67.753 42.5142L65.8463 39.6466C68.3856 38.0737 70.9993 36.5991 73.6814 35.2286L75.1504 38.344L78.3161 36.8514C78.4622 36.7825 78.6085 36.7139 78.755 36.6456L81.9275 35.1673L80.4727 32.0451C83.2156 30.8713 86.0198 29.8025 88.8793 28.8444L89.8709 32.1437L93.2228 31.1363C93.3778 31.0897 93.533 31.0435 93.6883 30.9975L97.0447 30.0052L96.0678 26.7013C98.9497 25.9464 101.88 25.3014 104.853 24.7716L105.353 28.1812L108.816 27.6738C108.976 27.6504 109.136 27.6273 109.296 27.6046L112.761 27.1124L112.276 23.7004C115.232 23.3728 118.225 23.1579 121.249 23.0604L121.256 26.5078L124.756 26.5003L125 26.5L125.244 26.5003L128.744 26.5078L128.751 23.0604C131.775 23.1579 134.768 23.3728 137.724 23.7004L137.239 27.1124L140.704 27.6046C140.864 27.6273 141.024 27.6504 141.184 27.6738L144.647 28.1812L145.147 24.7716C148.12 25.3014 151.05 25.9464 153.932 26.7013L152.955 30.0052L156.312 30.9975C156.467 31.0435 156.622 31.0897 156.777 31.1363L160.129 32.1437L161.121 28.8443C163.98 29.8025 166.784 30.8713 169.527 32.0451L168.072 35.1673L171.245 36.6456C171.391 36.7139 171.538 36.7825 171.684 36.8514L174.85 38.344L176.319 35.2286C179.001 36.5991 181.614 38.0737 184.154 39.6466L182.247 42.5142L185.162 44.4521C185.296 44.5414 185.43 44.6311 185.564 44.721L188.47 46.6722L190.389 43.8136C192.831 45.5707 195.192 47.4238 197.464 49.367L195.142 51.9083L197.726 54.2692C197.845 54.3779 197.964 54.4868 198.082 54.596L200.655 56.9691L202.988 54.4389C205.129 56.5483 207.174 58.7443 209.117 61.0209L206.427 63.1652L208.608 65.9024C208.708 66.0283 208.808 66.1544 208.908 66.2807L211.076 69.0284L213.777 66.8974C215.554 69.3151 217.224 71.809 218.779 74.3727L215.778 76.0523L217.487 79.1064C217.566 79.2467 217.644 79.3872 217.722 79.5279L219.416 82.5905L222.425 80.9261C223.781 83.5953 225.018 86.3289 226.129 89.1207L222.892 90.2762L224.069 93.5725C224.123 93.7238 224.176 93.8753 224.229 94.0269L225.389 97.3292L228.632 96.1904C229.519 99.0413 230.278 101.944 230.902 104.893L227.516 105.482L228.117 108.93C228.144 109.089 228.171 109.247 228.198 109.406L228.78 112.857L232.169 112.286Z" fill="#EFE5DC" fill-opacity="0.8" stroke="#666666" stroke-width="7" stroke-linecap="square" stroke-dasharray="0.5 16"/>
<g id="Blue">
<mask id="path-2-inside-1" fill="white">
<path d="M130.402 119.4C130.802 100.7 157.002 86.0999 187.602 87.3999C201.602 87.9999 206.602 89.7999 207.702 91.8999C210.602 97.6999 181.402 102 171.702 117.4C155.102 143.9 214.202 174.8 201.702 184.3C198.302 186.9 189.502 188.1 166.302 183.4C144.102 178.9 129.302 166.2 129.602 152C129.902 141.2 130.202 130.3 130.402 119.4Z"/>
</mask>
<path d="M130.402 119.4C130.802 100.7 157.002 86.0999 187.602 87.3999C201.602 87.9999 206.602 89.7999 207.702 91.8999C210.602 97.6999 181.402 102 171.702 117.4C155.102 143.9 214.202 174.8 201.702 184.3C198.302 186.9 189.502 188.1 166.302 183.4C144.102 178.9 129.302 166.2 129.602 152C129.902 141.2 130.202 130.3 130.402 119.4Z" fill="#7B98E0" stroke="#666666" stroke-width="8" stroke-miterlimit="10" mask="url(#path-2-inside-1)"/>
</g>
<g id="Red">
<mask id="path-3-inside-2" fill="white">
<path d="M120.502 119.4C120.102 100.7 93.9016 86.0999 63.3016 87.3999C49.3016 87.9999 44.3015 89.7999 43.2015 91.8999C40.3015 97.6999 69.5015 102 79.2015 117.4C95.8015 143.9 36.7015 174.8 49.2015 184.3C52.6015 186.9 61.4016 188.1 84.6016 183.4C106.802 178.9 121.602 166.2 121.302 152C121.002 141.2 120.702 130.3 120.502 119.4Z"/>
</mask>
<path d="M120.502 119.4C120.102 100.7 93.9016 86.0999 63.3016 87.3999C49.3016 87.9999 44.3015 89.7999 43.2015 91.8999C40.3015 97.6999 69.5015 102 79.2015 117.4C95.8015 143.9 36.7015 174.8 49.2015 184.3C52.6015 186.9 61.4016 188.1 84.6016 183.4C106.802 178.9 121.602 166.2 121.302 152C121.002 141.2 120.702 130.3 120.502 119.4Z" fill="#F85757" stroke="#666666" stroke-width="8" stroke-miterlimit="10" mask="url(#path-3-inside-2)"/>
</g>
<g id="Yellow">
<mask id="path-4-inside-3" fill="white">
<path d="M124.5 96C136.374 96 146 85.2548 146 72C146 58.7452 136.374 48 124.5 48C112.626 48 103 58.7452 103 72C103 85.2548 112.626 96 124.5 96Z"/>
</mask>
<path d="M124.5 96C136.374 96 146 85.2548 146 72C146 58.7452 136.374 48 124.5 48C112.626 48 103 58.7452 103 72C103 85.2548 112.626 96 124.5 96Z" fill="#EEE966" stroke="#666666" stroke-width="8" stroke-miterlimit="10" mask="url(#path-4-inside-3)"/>
</g>
</g>
</svg>
